<svg t="1728543456089" class="icon" viewBox="0 0 1025 1024" version="1.1" xmlns="http://www.w3.org/2000/svg" p-id="1691" width="200" height="200"><path d="M913.458888 1024H112.384214a112.384214 112.384214 0 0 1-112.384214-112.226876v-566.416436a113.305764 113.305764 0 0 1 53.719654-95.81878l364.934018-222.678081 19.172747 31.46758-19.172747-31.46758a181.298213 181.298213 0 0 1 189.906844 0l363.158348 222.520743a113.26081 113.26081 0 0 1 53.629747 95.683919v566.416436a112.384214 112.384214 0 0 1-111.889723 112.519075zM513.888055 73.634137a108.181044 108.181044 0 0 0-56.641644 16.183326L92.379824 312.495544a38.952368 38.952368 0 0 0-18.520919 33.018482v566.416436a38.682646 38.682646 0 0 0 38.682646 38.682647h801.187059a38.705123 38.705123 0 0 0 38.682646-38.682647v-566.416436a38.862461 38.862461 0 0 0-18.453488-32.928574l-363.158347-222.520743a108.023706 108.023706 0 0 0-56.911366-16.430572z" p-id="1692"></path><path d="M725.732297 884.261469a36.817068 36.817068 0 0 1-36.772114-36.817068v-174.375346a175.971202 175.971202 0 0 0-351.919927 0v174.442776a36.817068 36.817068 0 0 1-73.544229 0v-174.442776a249.492954 249.492954 0 0 1 498.985908 0v174.442776a36.839545 36.839545 0 0 1-36.749638 36.749638z" p-id="1693"></path></svg>
